<svg width="121" height="33" viewBox="0 0 121 33" fill="none" xmlns="http://www.w3.org/2000/svg">
<path d="M0 32.9744L-2.40226e-07 27.4786L7.21314 21.9829L7.21314 32.9744L0 32.9744Z" fill="#696969"/>
<path d="M14.4263 32.9744L14.4263 16.4872L21.6395 10.9914L21.6395 32.9744L14.4263 32.9744Z" fill="#696969"/>
<path d="M28.8526 -4.70376e-05L28.8526 5.49569L21.6395 10.9914L21.6395 -4.67223e-05L28.8526 -4.70376e-05Z" fill="#696969"/>
<path d="M14.4263 -4.6407e-05L14.4263 16.4872L7.21314 21.9829L7.21315 -4.60917e-05L14.4263 -4.6407e-05Z" fill="#696969"/>
<path d="M44.8458 12.5929C45.857 12.5929 46.7949 12.6881 47.6596 12.8786C48.5242 13.0692 49.2643 13.2963 49.8799 13.5601C50.4954 13.8239 50.9204 14.0437 51.1549 14.2196L49.4402 17.1214C49.1471 16.8722 48.6195 16.5864 47.8574 16.264C47.11 15.9416 46.2673 15.7804 45.3294 15.7804C44.3915 15.7804 43.6001 15.9489 42.9552 16.286C42.3104 16.6231 41.988 17.1287 41.988 17.8028C41.988 18.4623 42.3251 18.9899 42.9992 19.3856C43.688 19.7813 44.6186 20.111 45.791 20.3748C46.7583 20.5947 47.6816 20.9024 48.5609 21.2981C49.4402 21.6791 50.1583 22.2287 50.7152 22.9468C51.2868 23.6503 51.5725 24.5956 51.5725 25.7826C51.5725 26.9111 51.3307 27.8564 50.8471 28.6184C50.3781 29.3659 49.748 29.9667 48.9566 30.421C48.1652 30.8753 47.2859 31.1978 46.3186 31.3883C45.366 31.5935 44.4061 31.696 43.4389 31.696C42.2518 31.696 41.1893 31.5788 40.2513 31.3443C39.328 31.1098 38.5586 30.8387 37.9431 30.5309C37.3276 30.2085 36.8879 29.9374 36.6241 29.7176L38.3388 26.4641C38.7199 26.8305 39.3427 27.2189 40.2074 27.6292C41.072 28.0249 42.0393 28.2227 43.1091 28.2227C44.2522 28.2227 45.1682 28.0029 45.857 27.5633C46.5458 27.1236 46.8902 26.5374 46.8902 25.8046C46.8902 25.2624 46.7216 24.8227 46.3846 24.4856C46.0622 24.1486 45.6152 23.8774 45.0436 23.6723C44.4721 23.4671 43.8346 23.2839 43.1311 23.1227C42.4716 22.9615 41.8048 22.7563 41.1306 22.5072C40.4712 22.2434 39.863 21.9063 39.3061 21.496C38.7492 21.071 38.3022 20.5434 37.9651 19.9132C37.628 19.283 37.4595 18.5429 37.4595 17.6929C37.4595 16.6084 37.8039 15.6851 38.4927 14.9231C39.1815 14.161 40.0901 13.5821 41.2186 13.1864C42.347 12.7907 43.5561 12.5929 44.8458 12.5929Z" fill="#696969"/>
<path d="M58.7888 31.1685H54.0625V0.919922H58.7888V31.1685Z" fill="#696969"/>
<path d="M62.5077 31.1685V13.1205H67.1901V31.1685H62.5077ZM64.9038 7.71265C64.1124 7.71265 63.431 7.42687 62.8594 6.85532C62.3025 6.28376 62.0241 5.60229 62.0241 4.8109C62.0241 4.01952 62.3025 3.33805 62.8594 2.76649C63.431 2.18028 64.1124 1.88717 64.9038 1.88717C65.4314 1.88717 65.915 2.0264 66.3547 2.30485C66.809 2.56864 67.1681 2.92037 67.4319 3.36003C67.7103 3.78503 67.8495 4.26866 67.8495 4.8109C67.8495 5.60229 67.5638 6.28376 66.9922 6.85532C66.4207 7.42687 65.7245 7.71265 64.9038 7.71265Z" fill="#696969"/>
<path d="M79.8196 27.893C80.8601 27.893 81.7028 27.7245 82.3476 27.3874C83.0071 27.0357 83.4321 26.7792 83.6226 26.618L85.8429 29.9154C85.6671 30.062 85.3007 30.2818 84.7438 30.5749C84.1869 30.8534 83.4761 31.1098 82.6114 31.3443C81.7614 31.5788 80.7942 31.696 79.7097 31.696C77.9217 31.696 76.295 31.3223 74.8295 30.5749C73.3786 29.8128 72.2135 28.721 71.3342 27.2995C70.4695 25.8632 70.0372 24.1412 70.0372 22.1335C70.0372 20.111 70.4695 18.389 71.3342 16.9675C72.2135 15.5459 73.3786 14.4614 74.8295 13.714C76.295 12.9666 77.9217 12.5929 79.7097 12.5929C80.7795 12.5929 81.7321 12.7174 82.5675 12.9666C83.4175 13.2011 84.1209 13.4722 84.6778 13.7799C85.2347 14.0877 85.6084 14.3295 85.799 14.5054L83.5347 17.8028C83.4321 17.7002 83.2196 17.539 82.8972 17.3192C82.5894 17.0847 82.1791 16.8722 81.6662 16.6817C81.1532 16.4912 80.5377 16.3959 79.8196 16.3959C78.9403 16.3959 78.0976 16.6304 77.2916 17.0994C76.4855 17.5683 75.826 18.2352 75.3131 19.0998C74.8002 19.9498 74.5437 20.961 74.5437 22.1335C74.5437 23.3059 74.8002 24.3244 75.3131 25.1891C75.826 26.0538 76.4855 26.7206 77.2916 27.1895C78.0976 27.6585 78.9403 27.893 79.8196 27.893Z" fill="#696969"/>
<path d="M90.7657 23.2546C90.795 24.2072 91.0222 25.0645 91.4472 25.8266C91.8722 26.5887 92.4951 27.1895 93.3158 27.6292C94.1511 28.0542 95.1696 28.2667 96.3714 28.2667C97.4119 28.2667 98.3059 28.1275 99.0533 27.849C99.8154 27.5559 100.446 27.2115 100.944 26.8158C101.442 26.4055 101.808 26.0244 102.043 25.6727L104.131 28.5085C103.677 29.124 103.105 29.6736 102.417 30.1572C101.728 30.6409 100.871 31.0146 99.8447 31.2784C98.8335 31.5568 97.5804 31.696 96.0856 31.696C94.1218 31.696 92.4145 31.293 90.9636 30.487C89.5127 29.6809 88.3842 28.5452 87.5782 27.0796C86.7868 25.6141 86.3911 23.8994 86.3911 21.9356C86.3911 20.177 86.7575 18.5942 87.4903 17.1873C88.223 15.7657 89.2855 14.6446 90.6778 13.8239C92.0847 13.0032 93.7701 12.5929 95.7339 12.5929C97.5658 12.5929 99.1559 12.9592 100.504 13.692C101.852 14.4248 102.893 15.48 103.626 16.8576C104.373 18.2205 104.747 19.8692 104.747 21.8037C104.747 21.921 104.74 22.1628 104.725 22.5292C104.725 22.8955 104.71 23.1374 104.681 23.2546H90.7657ZM100.35 19.8253C100.336 19.3563 100.174 18.8214 99.8667 18.2205C99.5736 17.6196 99.0973 17.0994 98.4378 16.6597C97.7783 16.2054 96.899 15.9782 95.7998 15.9782C94.6714 15.9782 93.7554 16.1981 93.052 16.6377C92.3485 17.0627 91.8282 17.5757 91.4912 18.1765C91.1541 18.7627 90.9562 19.3123 90.8976 19.8253H100.35Z" fill="#696969"/>
<path d="M114.152 12.5929C115.163 12.5929 116.101 12.6881 116.966 12.8786C117.831 13.0692 118.571 13.2963 119.186 13.5601C119.802 13.8239 120.227 14.0437 120.461 14.2196L118.747 17.1214C118.453 16.8722 117.926 16.5864 117.164 16.264C116.416 15.9416 115.574 15.7804 114.636 15.7804C113.698 15.7804 112.906 15.9489 112.262 16.286C111.617 16.6231 111.294 17.1287 111.294 17.8028C111.294 18.4623 111.631 18.9899 112.306 19.3856C112.994 19.7813 113.925 20.111 115.097 20.3748C116.065 20.5947 116.988 20.9024 117.867 21.2981C118.747 21.6791 119.465 22.2287 120.022 22.9468C120.593 23.6503 120.879 24.5956 120.879 25.7826C120.879 26.9111 120.637 27.8564 120.153 28.6184C119.685 29.3659 119.054 29.9667 118.263 30.421C117.472 30.8753 116.592 31.1978 115.625 31.3883C114.672 31.5935 113.712 31.696 112.745 31.696C111.558 31.696 110.496 31.5788 109.558 31.3443C108.634 31.1098 107.865 30.8387 107.249 30.5309C106.634 30.2085 106.194 29.9374 105.931 29.7176L107.645 26.4641C108.026 26.8305 108.649 27.2189 109.514 27.6292C110.378 28.0249 111.346 28.2227 112.415 28.2227C113.559 28.2227 114.475 28.0029 115.163 27.5633C115.852 27.1236 116.197 26.5374 116.197 25.8046C116.197 25.2624 116.028 24.8227 115.691 24.4856C115.369 24.1486 114.922 23.8774 114.35 23.6723C113.778 23.4671 113.141 23.2839 112.437 23.1227C111.778 22.9615 111.111 22.7563 110.437 22.5072C109.778 22.2434 109.169 21.9063 108.612 21.496C108.056 21.071 107.609 20.5434 107.271 19.9132C106.934 19.283 106.766 18.5429 106.766 17.6929C106.766 16.6084 107.11 15.6851 107.799 14.9231C108.488 14.161 109.396 13.5821 110.525 13.1864C111.653 12.7907 112.862 12.5929 114.152 12.5929Z" fill="#696969"/>
</svg>
